<svg width="136" height="136" version="1.1" viewBox="0 0 35.98 35.98" xmlns="http://www.w3.org/2000/svg">
  <g transform="translate(.5292 -249.4)" display="none">
    <rect x="-42.86" y="249.4" width="35.98" height="35.98" fill="none"/>
    <ellipse transform="rotate(90)" cx="267.4" cy="38.36" rx="1.323" ry="1.323" fill="#fb4934" opacity=".9"/>
    <ellipse transform="rotate(90)" cx="267.4" cy="11.38" rx="1.058" ry="1.058" fill="#fb4934" opacity=".9"/>
    <ellipse transform="rotate(90)" cx="267.4" cy="24.87" rx="2.117" ry="2.117" fill="#fb4934" opacity=".9"/>
    <rect x="-.5292" y="285.4" width="3.704" height="3.704" fill="#458588"/>
    <g transform="translate(-36.78)">
      <rect x="36.25" y="249.4" width="35.98" height="35.98" display="none" fill="none"/>
    </g>
  </g>
  <path class="ColorScheme-Highlight" transform="matrix(.2646 0 0 .2646 -36.78 0)" d="m207 7a61 61 0 0 0-61 61 61 61 0 0 0 52.5 60.34 61 61 0 0 0 0.0625 0 61 61 0 0 0 0.125 0.0313 61 61 0 0 0 3.469 0.4062 61 61 0 0 0 1.344 0.0937 61 61 0 0 0 0.0313 0c0.1568 9e-3 0.3118 0.0232 0.4688 0.0313a61 61 0 0 0 3 0.0937c0.1556-7.2e-4 0.3131-0.0292 0.4688-0.0313a61 61 0 0 0 4.188-0.2188c0.2084-0.0188 0.4168-0.0101 0.625-0.0313 12.84-1.306 25.21-7.118 34.34-16.25 10.44-10.44 16.5-25.12 16.5-39.88 0-5.535-0.8503-11.05-2.469-16.34a55 55 0 0 1 1.344 11.75 55 55 0 0 1-55 55 55 55 0 0 1-55-55 55 55 0 0 1 2.469-16.25 55 55 0 0 1 52.53-38.75h1c1.108 0 2-0.892 2-2v-2c0-1.108-0.892-2-2-2h-1z" fill="#ebdbb2"/>
</svg>
