<svg width="22" height="22" version="1.1" xmlns="http://www.w3.org/2000/svg">
  <g transform="translate(0,-42)" display="none">
    <g transform="matrix(2,0,0,2,0,-64)">
      <rect y="-1.332e-15" width="64" height="64" opacity="0"/>
    </g>
  </g>
  <path transform="matrix(2,0,0,2,0,-106)" d="m6.413 53-1.932 0.1758v7.531l1.912-0.2734v-3.211l2.572 3.563 2.015-0.6055-2.634-3.426 2.655-3.23-2.056-0.4453-2.552 3.23 0.02064-3.309zm-4.381 1.836c-0.02185 0.0021-0.04548 0.0078-0.06194 0.02344l-0.7598 0.7188c-0.03191 0.03028-0.03581 0.07663-0.01238 0.1133l0.8878 1.387c-0.1576 0.2507-0.2856 0.5196-0.3758 0.8047l-1.631 0.3203c-0.04539 0.0089-0.07845 0.04975-0.07845 0.09375v1.016c0 0.04294 0.03452 0.07972 0.07845 0.08984l1.581 0.3633c0.08456 0.3301 0.2152 0.6459 0.3881 0.9336l-0.9167 1.32c-0.02557 0.03687-0.02058 0.08606 0.01238 0.1172l0.7598 0.7188c0.03201 0.03019 0.0811 0.03397 0.1197 0.01171l1.437-0.8242c0.2818 0.1539 0.587 0.2772 0.9084 0.3594l0.3345 1.523c0.0094 0.04307 0.04849 0.07422 0.09497 0.07422h1.074c0.04506 0 0.08427-0.02862 0.09497-0.07031l0.3964-1.531c0.3315-0.08456 0.6441-0.2101 0.9332-0.3711l1.416 0.8789c0.03904 0.02406 0.09078 0.0194 0.1239-0.01171l0.7556-0.7188c0.03211-0.03031 0.04003-0.07672 0.01652-0.1133l-0.5161-0.8047-0.1693 0.05078c-0.02444 0.0071-0.05153-0.0033-0.06607-0.02344 0 0-0.326-0.4537-0.7515-1.043-0.5088 0.9419-1.547 1.586-2.742 1.586-1.698 0-3.076-1.303-3.076-2.91 0-1.182 0.747-2.197 1.817-2.652v-0.75c-0.1947 0.06447-0.3828 0.1422-0.5616 0.2344-2.25e-4 -1.34e-4 3.66e-4 -0.0037 0-0.0039l-1.449-0.8985c-0.01949-0.01206-0.04009-0.01385-0.06194-0.01171z" fill="#ebdbb2"/>
</svg>
